# xmcd CD database file
#
# Track frame offsets:
#	150
#	14345
#	25632
#	44367
#	57765
#	70597
#	81535
#	95070
#	103975
#	120515
#	133870
#	147137
#	169865
#	184880
#	196937
#	210422
#	220037
#	236292
#	245780
#	256207
#	270220
#	284615
#	300935
#	315222
#	324610
#
# Disc length: 4601 seconds
#
# Revision: 2
# Processed by: cddbd v1.5.2PL0 Copyright (c) Steve Scherf et al.
# Submitted via: CDex 1.70beta2
#
DISCID=5f11f719
DTITLE=dancemania SUPER TEHCNO - dancemania SUPER TEHCNO BEST
DYEAR=2002
DGENRE=Rave
TTITLE0=2 UNLIMITED - GET READY FOR THIS
TTITLE1=CUBIC 22 - NIGHT IN MOTION (Rap Remix)
TTITLE2=T99 - T99 MEGAMIX
TTITLE3=QUADROPHONIA - QUADROPHONIA (Remix)
TTITLE4=TECHNOTRONIA - THIS BEAT IS TECHNOTRONIC
TTITLE5=D.J. DICK - WEEKEND
TTITLE6=2 THE CORE - HAVE A NICE DAY
TTITLE7=LOVE DECADE - SO REAL
TTITLE8=ROZALLA - ARE YOU READY TO FLY (Rainbow Mix)
TTITLE9=JAMIE DEE - MEMORIES MEMORIES (Saxomatic Mix)
TTITLE10=MARIA SHORT - CHANGE THE WAY
TTITLE11=KIRSTY HAWKSHOW - FINE DAY (Mike Koglin Mix)
TTITLE12=MIX FACTORY - TAKE ME AWAY (PARADISE) (Original Mix)
TTITLE13=2 UNLIMITED - TWILIGHT ZONE
TTITLE14=HOLY NOISE feat. THE GLOBAL INSERT PROJECT - JAMES BROWN IS STILL ALIVE!!
TTITLE15=APOTHEOSIS - O FORTUNA (Apocalypse Chorus Mix)
TTITLE16=HYENA - BACH IS BACK
TTITLE17=SONIC ADVENTURE feat. A.C.E. - MAKE WAY FOR THE BOOM
TTITLE18=GENER 8 - UNITY
TTITLE19=B.B.C. (BOOMBASTIC BEAT CORPORATION) - WELCOME TO THE GATES OF HELL
TTITLE20=CORTINA - MUSIC IS MOVING (Kumara Mix)
TTITLE21=2 UNLIMITED - NO LIMIT
TTITLE22=N-TRANCE - SET YOUR FREE (Rob Searle Remix)
TTITLE23=ROYAL 'T' - BABY DON'T CHA LEAVE ME THIS WAY (December Mix)
TTITLE24=AQUAGEN feat. ROZALLA - EVERYBODY'S FREE (Extended Mix)
EXTD=YEAR: 2002
EXTT0=
EXTT1=
EXTT2=
EXTT3=
EXTT4=
EXTT5=
EXTT6=
EXTT7=
EXTT8=
EXTT9=
EXTT10=
EXTT11=
EXTT12=
EXTT13=
EXTT14=
EXTT15=
EXTT16=
EXTT17=
EXTT18=
EXTT19=
EXTT20=
EXTT21=
EXTT22=
EXTT23=
EXTT24=
PLAYORDER=
